{
  "accessors": [
    {
      "bufferView": 2,
      "componentType": 5126,
      "count": 2536,
      "max": [
        0.9872311353683472,
        0.9872305393218994,
        0.9975767135620117
      ],
      "min": [
        -1.1353535652160645,
        -0.9872307181358337,
        -0.9975767135620117
      ],
      "type": "VEC3"
    },
    {
      "bufferView": 2,
      "byteOffset": 30432,
      "componentType": 5126,
      "count": 2536,
      "max": [
        0.9999967217445374,
        0.9999967813491821,
        1.0
      ],
      "min": [
        -0.9948993921279907,
        -0.9999967217445374,
        -1.0
      ],
      "type": "VEC3"
    },
    {
      "bufferView": 1,
      "componentType": 5126,
      "count": 2536,
      "max": [
        1.0,
        0.9708889126777649
      ],
      "min": [
        0.0,
        0.0
      ],
      "type": "VEC2"
    },
    {
      "bufferView": 0,
      "componentType": 5125,
      "count": 13536,
      "type": "SCALAR"
    },
    {
      "bufferView": 2,
      "byteOffset": 60864,
      "componentType": 5126,
      "count": 1596,
      "max": [
        0.9935949444770813,
        0.9935941696166992,
        1.0211048126220703
      ],
      "min": [
        -0.993594229221344,
        -0.9935945868492126,
        -4.3711398944878965e-08
      ],
      "type": "VEC3"
    },
    {
      "bufferView": 2,
      "byteOffset": 80016,
      "componentType": 5126,
      "count": 1596,
      "max": [
        0.9944259524345398,
        0.9944263696670532,
        1.0
      ],
      "min": [
        -0.9944261312484741,
        -0.9944261908531189,
        0.10543350130319595
      ],
      "type": "VEC3"
    },
    {
      "bufferView": 1,
      "byteOffset": 20288,
      "componentType": 5126,
      "count": 1596,
      "max": [
        1.0000001192092896,
        0.6444425582885742
      ],
      "min": [
        0.0,
        0.0
      ],
      "type": "VEC2"
    },
    {
      "bufferView": 0,
      "byteOffset": 54144,
      "componentType": 5125,
      "count": 6720,
      "type": "SCALAR"
    },
    {
      "bufferView": 2,
      "byteOffset": 99168,
      "componentType": 5126,
      "count": 1589,
      "max": [
        0.9935949444770813,
        0.9935941696166992,
        1.0211048126220703
      ],
      "min": [
        -0.993594229221344,
        -0.9935945868492126,
        -4.3711398944878965e-08
      ],
      "type": "VEC3"
    },
    {
      "bufferView": 2,
      "byteOffset": 118236,
      "componentType": 5126,
      "count": 1589,
      "max": [
        0.9944259524345398,
        0.9944263696670532,
        1.0
      ],
      "min": [
        -0.9944261312484741,
        -0.9944261908531189,
        0.10543350130319595
      ],
      "type": "VEC3"
    },
    {
      "bufferView": 1,
      "byteOffset": 33056,
      "componentType": 5126,
      "count": 1589,
      "max": [
        0.9990023970603943,
        0.6428683996200562
      ],
      "min": [
        0.0009977200534194708,
        0.0009977200534194708
      ],
      "type": "VEC2"
    },
    {
      "bufferView": 0,
      "byteOffset": 81024,
      "componentType": 5125,
      "count": 6720,
      "type": "SCALAR"
    },
    {
      "bufferView": 2,
      "byteOffset": 137304,
      "componentType": 5126,
      "count": 2721,
      "max": [
        1.0000001192092896,
        0.991343080997467,
        0.9745516180992126
      ],
      "min": [
        -6.552828788757324,
        -0.9914643168449402,
        -0.9791667461395264
      ],
      "type": "VEC3"
    },
    {
      "bufferView": 2,
      "byteOffset": 169956,
      "componentType": 5126,
      "count": 2721,
      "max": [
        1.0,
        0.999955415725708,
        0.9999978542327881
      ],
      "min": [
        -1.0,
        -0.9999582171440125,
        -1.0
      ],
      "type": "VEC3"
    },
    {
      "bufferView": 1,
      "byteOffset": 45768,
      "componentType": 5126,
      "count": 2721,
      "max": [
        0.9045907258987427,
        1.0
      ],
      "min": [
        0.0,
        0.0
      ],
      "type": "VEC2"
    },
    {
      "bufferView": 0,
      "byteOffset": 107904,
      "componentType": 5125,
      "count": 13680,
      "type": "SCALAR"
    },
    {
      "bufferView": 2,
      "byteOffset": 202608,
      "componentType": 5126,
      "count": 2721,
      "max": [
        1.0000001192092896,
        0.991343080997467,
        0.9745516180992126
      ],
      "min": [
        -6.552828788757324,
        -0.9914643168449402,
        -0.9791667461395264
      ],
      "type": "VEC3"
    },
    {
      "bufferView": 2,
      "byteOffset": 235260,
      "componentType": 5126,
      "count": 2721,
      "max": [
        1.0,
        0.999955415725708,
        0.9999978542327881
      ],
      "min": [
        -1.0,
        -0.9999582171440125,
        -1.0
      ],
      "type": "VEC3"
    },
    {
      "bufferView": 1,
      "byteOffset": 67536,
      "componentType": 5126,
      "count": 2721,
      "max": [
        0.9045907258987427,
        1.0
      ],
      "min": [
        0.0,
        0.0
      ],
      "type": "VEC2"
    },
    {
      "bufferView": 0,
      "byteOffset": 162624,
      "componentType": 5125,
      "count": 13680,
      "type": "SCALAR"
    },
    {
      "bufferView": 2,
      "byteOffset": 267912,
      "componentType": 5126,
      "count": 718,
      "max": [
        0.9876495599746704,
        1.0146687030792236,
        1.297367811203003
      ],
      "min": [
        -1.0542939901351929,
        -1.0146687030792236,
        -1.6641180515289307
      ],
      "type": "VEC3"
    },
    {
      "bufferView": 2,
      "byteOffset": 276528,
      "componentType": 5126,
      "count": 718,
      "max": [
        0.998870313167572,
        0.9998738169670105,
        0.9968113899230957
      ],
      "min": [
        -0.9989609122276306,
        -0.9998738169670105,
        -0.9998970627784729
      ],
      "type": "VEC3"
    },
    {
      "bufferView": 1,
      "byteOffset": 89304,
      "componentType": 5126,
      "count": 718,
      "max": [
        1.0,
        0.9668774604797363
      ],
      "min": [
        0.0,
        0.0
      ],
      "type": "VEC2"
    },
    {
      "bufferView": 0,
      "byteOffset": 217344,
      "componentType": 5125,
      "count": 3264,
      "type": "SCALAR"
    },
    {
      "bufferView": 2,
      "byteOffset": 285144,
      "componentType": 5126,
      "count": 129,
      "max": [
        0.8768806457519531,
        0.9600499868392944,
        2.3512966632843018
      ],
      "min": [
        -0.9420621395111084,
        -0.9597033858299255,
        -0.4920846223831177
      ],
      "type": "VEC3"
    },
    {
      "bufferView": 2,
      "byteOffset": 286692,
      "componentType": 5126,
      "count": 129,
      "max": [
        0.9981504678726196,
        0.9996985197067261,
        0.98989337682724
      ],
      "min": [
        -0.9997639060020447,
        -0.9997000694274902,
        -0.9285410642623901
      ],
      "type": "VEC3"
    },
    {
      "bufferView": 1,
      "byteOffset": 95048,
      "componentType": 5126,
      "count": 129,
      "max": [
        0.9978455901145935,
        0.9845091104507446
      ],
      "min": [
        0.002154469722881913,
        0.0021543505135923624
      ],
      "type": "VEC2"
    },
    {
      "bufferView": 0,
      "byteOffset": 230400,
      "componentType": 5125,
      "count": 432,
      "type": "SCALAR"
    },
    {
      "bufferView": 2,
      "byteOffset": 288240,
      "componentType": 5126,
      "count": 129,
      "max": [
        0.8768806457519531,
        0.9600499868392944,
        2.3512966632843018
      ],
      "min": [
        -0.9420621395111084,
        -0.9597033858299255,
        -0.4920846223831177
      ],
      "type": "VEC3"
    },
    {
      "bufferView": 2,
      "byteOffset": 289788,
      "componentType": 5126,
      "count": 129,
      "max": [
        0.9981504678726196,
        0.9996985197067261,
        0.98989337682724
      ],
      "min": [
        -0.9997639060020447,
        -0.9997000694274902,
        -0.9285410642623901
      ],
      "type": "VEC3"
    },
    {
      "bufferView": 1,
      "byteOffset": 96080,
      "componentType": 5126,
      "count": 129,
      "max": [
        0.9978455901145935,
        0.9845091104507446
      ],
      "min": [
        0.002154469722881913,
        0.0021543505135923624
      ],
      "type": "VEC2"
    },
    {
      "bufferView": 0,
      "byteOffset": 232128,
      "componentType": 5125,
      "count": 432,
      "type": "SCALAR"
    }
  ],
  "asset": {
    "extras": {
      "author": "Penginsame (https://sketchfab.com/Richeliu2012)",
      "license": "CC-BY-4.0 (http://creativecommons.org/licenses/by/4.0/)",
      "source": "https://sketchfab.com/3d-models/pato-fallguys-54101119e2a24b4ebb9aa5acc88da83f",
      "title": "Pato Fallguys"
    },
    "generator": "Sketchfab-13.42.0",
    "version": "2.0"
  },
  "bufferViews": [
    {
      "buffer": 0,
      "byteLength": 233856,
      "name": "floatBufferViews",
      "target": 34963
    },
    {
      "buffer": 0,
      "byteLength": 97112,
      "byteOffset": 233856,
      "byteStride": 8,
      "name": "floatBufferViews",
      "target": 34962
    },
    {
      "buffer": 0,
      "byteLength": 291336,
      "byteOffset": 330968,
      "byteStride": 12,
      "name": "floatBufferViews",
      "target": 34962
    }
  ],
  "buffers": [
    {
      "byteLength": 622304,
      "uri": "scene.bin"
    }
  ],
  "images": [
    {
      "uri": "textures/CUERPAZO_baseColor.png"
    },
    {
      "uri": "textures/Material.002_baseColor.png"
    },
    {
      "uri": "textures/Material.003_baseColor.png"
    },
    {
      "uri": "textures/pats003_baseColor.png"
    },
    {
      "uri": "textures/pats001_baseColor.png"
    },
    {
      "uri": "textures/pico_baseColor.png"
    }
  ],
  "materials": [
    {
      "doubleSided": true,
      "name": "CUERPAZO",
      "pbrMetallicRoughness": {
        "baseColorTexture": {
          "index": 0
        },
        "metallicFactor": 0.0,
        "roughnessFactor": 0.8576958570571767
      }
    },
    {
      "doubleSided": true,
      "name": "Material.002",
      "pbrMetallicRoughness": {
        "baseColorTexture": {
          "index": 1
        },
        "metallicFactor": 0.0,
        "roughnessFactor": 0.913006877895769
      }
    },
    {
      "doubleSided": true,
      "name": "Material.003",
      "pbrMetallicRoughness": {
        "baseColorTexture": {
          "index": 2
        },
        "metallicFactor": 0.0,
        "roughnessFactor": 0.8752786783558211
      }
    },
    {
      "doubleSided": true,
      "name": "pats003",
      "pbrMetallicRoughness": {
        "baseColorTexture": {
          "index": 3
        },
        "metallicFactor": 0.0,
        "roughnessFactor": 0.9112362635227539
      }
    },
    {
      "doubleSided": true,
      "name": "pats001",
      "pbrMetallicRoughness": {
        "baseColorTexture": {
          "index": 4
        },
        "metallicFactor": 0.0,
        "roughnessFactor": 0.89934034665544
      }
    },
    {
      "doubleSided": true,
      "name": "pico",
      "pbrMetallicRoughness": {
        "baseColorTexture": {
          "index": 5
        },
        "metallicFactor": 0.0,
        "roughnessFactor": 0.8864061262198261
      }
    },
    {
      "doubleSided": true,
      "name": "Material",
      "pbrMetallicRoughness": {
        "baseColorFactor": [
          0.8,
          0.8,
          0.8,
          1.0
        ],
        "metallicFactor": 0.0,
        "roughnessFactor": 0.8211145618000169
      }
    },
    {
      "doubleSided": true,
      "name": "Material.001",
      "pbrMetallicRoughness": {
        "baseColorFactor": [
          0.8,
          0.8,
          0.8,
          1.0
        ],
        "metallicFactor": 0.0,
        "roughnessFactor": 0.8211145618000169
      }
    }
  ],
  "meshes": [
    {
      "name": "Sphere_CUERPAZO_0",
      "primitives": [
        {
          "attributes": {
            "NORMAL": 1,
            "POSITION": 0,
            "TEXCOORD_0": 2
          },
          "indices": 3,
          "material": 0,
          "mode": 4
        }
      ]
    },
    {
      "name": "Sphere.001_Material.002_0",
      "primitives": [
        {
          "attributes": {
            "NORMAL": 5,
            "POSITION": 4,
            "TEXCOORD_0": 6
          },
          "indices": 7,
          "material": 1,
          "mode": 4
        }
      ]
    },
    {
      "name": "Sphere.002_Material.003_0",
      "primitives": [
        {
          "attributes": {
            "NORMAL": 9,
            "POSITION": 8,
            "TEXCOORD_0": 10
          },
          "indices": 11,
          "material": 2,
          "mode": 4
        }
      ]
    },
    {
      "name": "Cube_pats003_0",
      "primitives": [
        {
          "attributes": {
            "NORMAL": 13,
            "POSITION": 12,
            "TEXCOORD_0": 14
          },
          "indices": 15,
          "material": 3,
          "mode": 4
        }
      ]
    },
    {
      "name": "Cube.001_pats001_0",
      "primitives": [
        {
          "attributes": {
            "NORMAL": 17,
            "POSITION": 16,
            "TEXCOORD_0": 18
          },
          "indices": 19,
          "material": 4,
          "mode": 4
        }
      ]
    },
    {
      "name": "Cube.003_pico_0",
      "primitives": [
        {
          "attributes": {
            "NORMAL": 21,
            "POSITION": 20,
            "TEXCOORD_0": 22
          },
          "indices": 23,
          "material": 5,
          "mode": 4
        }
      ]
    },
    {
      "name": "Cube.002_Material_0",
      "primitives": [
        {
          "attributes": {
            "NORMAL": 25,
            "POSITION": 24,
            "TEXCOORD_0": 26
          },
          "indices": 27,
          "material": 6,
          "mode": 4
        }
      ]
    },
    {
      "name": "Cube.004_Material.001_0",
      "primitives": [
        {
          "attributes": {
            "NORMAL": 29,
            "POSITION": 28,
            "TEXCOORD_0": 30
          },
          "indices": 31,
          "material": 7,
          "mode": 4
        }
      ]
    }
  ],
  "nodes": [
    {
      "children": [
        1
      ],
      "matrix": [
        1.0,
        0.0,
        0.0,
        0.0,
        0.0,
        2.220446049250313e-16,
        -1.0,
        0.0,
        0.0,
        1.0,
        2.220446049250313e-16,
        0.0,
        0.0,
        0.0,
        0.0,
        1.0
      ],
      "name": "Sketchfab_model"
    },
    {
      "children": [
        2
      ],
      "matrix": [
        0.009999999776482582,
        0.0,
        0.0,
        0.0,
        0.0,
        0.0,
        0.009999999776482582,
        0.0,
        0.0,
        -0.009999999776482582,
        0.0,
        0.0,
        0.0,
        0.0,
        0.0,
        1.0
      ],
      "name": "0614d65989de4b8aa3ac03eaee462197.fbx"
    },
    {
      "children": [
        3,
        5,
        7,
        9,
        11,
        13,
        15,
        17
      ],
      "name": "RootNode"
    },
    {
      "children": [
        4
      ],
      "matrix": [
        358.6663818359375,
        0.0,
        0.0,
        0.0,
        0.0,
        -5.843417060372096e-05,
        -358.6663818359328,
        0.0,
        0.0,
        358.6663818359328,
        -5.843417060372096e-05,
        0.0,
        0.0,
        0.0,
        -20.080888748168945,
        1.0
      ],
      "name": "Sphere"
    },
    {
      "mesh": 0,
      "name": "Sphere_CUERPAZO_0"
    },
    {
      "children": [
        6
      ],
      "matrix": [
        101.91540523984978,
        0.8802178643882813,
        -61.719085582726755,
        0.0,
        -26.209151226053443,
        108.48195458436706,
        -41.73147559606201,
        0.0,
        55.88470542743759,
        49.27129558912961,
        92.98390960821648,
        0.0,
        168.80076599121094,
        175.32069396972656,
        170.85604858398438,
        1.0
      ],
      "name": "Sphere.001"
    },
    {
      "mesh": 1,
      "name": "Sphere.001_Material.002_0"
    },
    {
      "children": [
        8
      ],
      "matrix": [
        96.87115645817983,
        -7.14965951764312,
        46.91358543272694,
        0.0,
        15.726202694166941,
        -95.77683479125422,
        -47.06924827310866,
        0.0,
        44.77375777477823,
        49.10915639405954,
        -84.96839264014599,
        0.0,
        116.876220703125,
        178.50425720214844,
        -237.609130859375,
        1.0
      ],
      "name": "Sphere.002"
    },
    {
      "mesh": 2,
      "name": "Sphere.002_Material.003_0"
    },
    {
      "children": [
        10
      ],
      "matrix": [
        14.508969779224829,
        -6.01737498995366,
        11.288362372710088,
        0.0,
        45.35337371783218,
        0.43292287710548655,
        -58.06206850243859,
        0.0,
        17.80989448088396,
        70.01996082104144,
        14.433726954198113,
        0.0,
        269.85125732421875,
        -200.39093017578125,
        234.5848388671875,
        1.0
      ],
      "name": "Cube"
    },
    {
      "mesh": 3,
      "name": "Cube_pats003_0"
    },
    {
      "children": [
        12
      ],
      "matrix": [
        9.818279339737813,
        -4.091783275373501,
        -16.155646229823063,
        0.0,
        -62.65704441088921,
        2.400528262804449,
        -38.68658654288433,
        0.0,
        10.188732205695318,
        71.96975056201158,
        -12.035965631024565,
        0.0,
        243.96920776367188,
        -200.39093017578125,
        -276.50653076171875,
        1.0
      ],
      "name": "Cube.001"
    },
    {
      "mesh": 4,
      "name": "Cube.001_pats001_0"
    },
    {
      "children": [
        14
      ],
      "matrix": [
        58.09148052749649,
        17.548363318346233,
        -0.08084827455995856,
        0.0,
        3.4349993781114875e-06,
        -0.4226154085244731,
        -91.72748866791618,
        0.0,
        -5.51992740382359,
        18.272584347212646,
        -0.08418735508610288,
        0.0,
        325.8318786621094,
        160.77279663085938,
        -20.080888748168945,
        1.0
      ],
      "name": "Cube.003"
    },
    {
      "mesh": 5,
      "name": "Cube.003_pico_0"
    },
    {
      "children": [
        16
      ],
      "matrix": [
        6.32231625752537,
        -5.619341204017728,
        -1.2271195793247645,
        0.0,
        -0.992672211782609,
        2.5217781967446284,
        -16.662369451034667,
        0.0,
        1.3191010798248053,
        1.4532508448054002,
        0.1413569249726481,
        0.0,
        248.86520385742188,
        257.49566650390625,
        186.69021606445313,
        1.0
      ],
      "name": "Cube.002"
    },
    {
      "mesh": 6,
      "name": "Cube.002_Material_0"
    },
    {
      "children": [
        18
      ],
      "matrix": [
        6.586968385650619,
        -5.442795057157075,
        -0.20574338757053584,
        0.0,
        -0.7254376040640298,
        -0.24045989714965382,
        -16.864020103157678,
        0.0,
        1.2510756239426322,
        1.5169261724909417,
        -0.07544685115255569,
        0.0,
        183.08323669433594,
        258.5630798339844,
        -250.29534912109375,
        1.0
      ],
      "name": "Cube.004"
    },
    {
      "mesh": 7,
      "name": "Cube.004_Material.001_0"
    }
  ],
  "samplers": [
    {
      "magFilter": 9729,
      "minFilter": 9987,
      "wrapS": 10497,
      "wrapT": 10497
    }
  ],
  "scene": 0,
  "scenes": [
    {
      "name": "Sketchfab_Scene",
      "nodes": [
        0
      ]
    }
  ],
  "textures": [
    {
      "sampler": 0,
      "source": 0
    },
    {
      "sampler": 0,
      "source": 1
    },
    {
      "sampler": 0,
      "source": 2
    },
    {
      "sampler": 0,
      "source": 3
    },
    {
      "sampler": 0,
      "source": 4
    },
    {
      "sampler": 0,
      "source": 5
    }
  ]
}
